<?xml version="1.0" encoding="UTF-8"?>
<svg width="96px" height="120px" viewBox="0 0 96 120" version="1.1" xmlns="http://www.w3.org/2000/svg" xmlns:xlink="http://www.w3.org/1999/xlink">
    <title>yape/lg_light</title>
    <g id="yape/lg_light" stroke="none" stroke-width="1" fill="none" fill-rule="evenodd">
        <path d="M68.1021477,14.7223981 L59.9467442,29.7865842 C59.6112449,30.4036385 58.844829,30.629995 58.2360055,30.2926307 C57.6259508,29.9602276 57.3987962,29.1887547 57.7342955,28.5717005 L65.8890834,13.5044137 C66.2245828,12.8904602 66.9909986,12.6641036 67.6004378,12.9983671 C68.2098769,13.3332509 68.4345691,14.1053439 68.1021477,14.7223981 M50.6678796,30.6827082 C45.9598085,30.6827082 44.6639808,27.5670493 44.3315595,26.0104602 C44.1899726,25.3971268 44.1868947,24.9654989 44.1868947,24.7583671 C44.1868947,24.0234834 44.7778659,23.4281346 45.5042681,23.4281346 C46.1845007,23.4281346 46.7379207,23.945964 46.8124077,24.6064292 C46.8124077,24.6126307 46.817948,24.6157315 46.817948,24.6213129 C46.8247196,24.661623 46.8302599,24.7335609 46.8370315,24.8290648 C46.8456498,24.9034834 46.8579617,24.9785222 46.8579617,25.0585222 C46.8579617,25.1112354 46.8616553,25.1639485 46.8641176,25.2203826 C46.8770451,25.3282896 46.889357,25.4461191 46.9102873,25.5670493 C46.9595349,25.8250338 47.0457182,26.1127857 47.190383,26.4042586 C47.2088509,26.4321656 47.2211628,26.4606927 47.2365527,26.4879795 C47.6828591,27.3245687 48.6000958,28.1462741 50.3730096,28.2399175 C53.0409986,28.3168168 53.8283447,27.4175919 53.8381943,26.3013129 C53.7366211,25.0095299 53.6596717,24.0786772 50.5786183,22.8110803 C46.9749248,21.3289098 44.6762927,20.4327857 44.6762927,17.3301501 C44.6762927,14.2293749 47.5351163,12.9487547 50.1538577,12.9487547 C50.8131601,12.9487547 51.3850479,13.0268943 51.8959918,13.1509253 C52.9178796,13.3549563 54.049959,13.7772819 54.8964022,14.6144912 L54.8964022,14.6076695 C55.1118605,14.7999175 55.3396306,15.0827082 55.539699,15.4225532 C55.5612449,15.457902 55.5827907,15.4913904 55.6012585,15.5254989 C55.6535841,15.6185222 55.7028317,15.717747 55.7520793,15.8200726 C55.7674692,15.8541811 55.7828591,15.8851888 55.798249,15.9192974 C56.0567989,16.4954214 56.2414774,17.1775919 56.2414774,17.8752664 C56.2414774,17.9992974 56.2568673,18.2070493 56.2137756,18.4396075 C56.2106977,18.4606927 56.2045417,18.4799175 56.2014637,18.501623 C56.1891518,18.5543361 56.170684,18.6070493 56.1491382,18.6628633 C56.1399042,18.6876695 56.1337483,18.7093749 56.1214364,18.7310803 C56.1152804,18.749685 56.1060465,18.7682896 56.0937346,18.7906152 C55.8751984,19.2234834 55.4350479,19.5248788 54.917948,19.5248788 C54.4624077,19.5248788 54.0690424,19.2923206 53.8314227,18.941933 C53.8135705,18.9103051 53.7951026,18.8799175 53.7790971,18.8482896 C53.7421614,18.7875144 53.7119973,18.7186772 53.6867579,18.64984 C53.6842955,18.641778 53.6781395,18.6324757 53.6781395,18.6231733 C53.6658276,18.5890648 53.6535157,18.5512354 53.6473598,18.517747 C53.5851847,18.3068943 53.5580985,18.0805377 53.5580985,17.8913904 C53.5580985,17.8504602 53.5550205,17.8132509 53.5519425,17.7729408 C53.5519425,17.7103051 53.548249,17.6551113 53.5427086,17.5968168 C53.5026949,17.2675144 53.4066621,17.0076695 53.2903146,16.7968168 C53.2780027,16.7751113 53.2656908,16.7534059 53.2533789,16.7317005 C53.2287551,16.6944912 53.2072093,16.6603826 53.1825855,16.6225532 C52.5238988,15.6681346 51.117264,15.1837935 50.0898358,15.1837935 C48.7047469,15.1837935 47.2180848,15.9503051 47.2180848,17.3580571 C47.2180848,18.7620881 48.5508482,19.6054989 50.8094665,20.3558865 C55.2226676,21.9837935 56.1337483,23.3010028 56.5308071,24.9072044 C56.9678796,26.6647237 56.2106977,30.6827082 50.6678796,30.6827082 M75.2756772,15.9720106 C72.8323803,4.92890978 61.7959918,-1.99450108 50.6315595,0.513405902 C39.4634337,3.02565396 32.3939398,14.0123206 34.8403146,25.0560416 C35.6467442,28.7050338 37.3919562,31.9044137 39.7736936,34.461933 C40.9956498,35.7797625 38.2716416,43.0461191 39.7860055,43.9949563 C41.0325855,44.7763516 46.4793707,39.301623 47.8706156,39.8039485 C51.4619973,41.0969718 55.4658276,41.4157315 59.4850479,40.5140261 C70.6500958,38.0048788 77.722052,27.0182121 75.2756772,15.9720106" id="iso" fill="#10CBB4"></path>
        <path d="M68.2004256,49.6535411 C69.8145485,48.7734769 72.8304264,48.4983018 74.2811892,50.4809254 C75.735722,52.4610699 76.0718667,56.2069207 75.8613835,59.2921036 C75.6477589,62.4876043 74.38486,67.9774697 72.427681,71.8311594 C70.5308195,75.5770102 67.9648102,78.211625 64.3683759,77.6408228 C61.2840125,77.1512096 59.9551413,75.1747837 59.9551413,75.1747837 C59.9551413,75.1747837 59.766649,76.0331562 59.2263042,79.6550543 C59.0740616,80.6687606 58.9181706,81.9798024 58.7382328,83.3821745 C61.1094103,83.046966 62.9447523,82.7956434 63.7409562,82.6989729 C65.3399657,82.5028623 69.1212475,82.0195875 72.9705633,81.5645168 L73.9748858,81.4466499 C77.652866,81.0183376 81.224885,80.6409206 82.8406585,80.5903949 C86.2931547,80.4781111 87.0046156,81.0302248 87.5533159,81.9105049 C88.0989336,82.7951275 88.3208798,84.2275213 87.2789657,85.2765373 C86.6478939,85.911535 83.222108,86.3643157 79.721349,86.7452209 L79.0435769,86.8180766 C77.0118342,87.0341289 75.0139729,87.2283486 73.58242,87.4223365 C71.65897,87.6855342 66.8234817,88.3322561 61.8982423,89.0038502 L60.8424886,89.1480132 C59.7822054,89.2930083 58.7271087,89.4379689 57.7053823,89.5793133 C57.3850315,90.8938039 57.001201,91.9554407 56.5283502,92.5070907 C54.9638636,94.3279559 53.3459708,93.6561323 52.8722267,92.5070907 C52.6196707,91.8889374 52.6378292,90.9863051 52.7090682,90.2816859 C51.0647021,90.5186563 49.7643325,90.7142386 49.0394875,90.8392378 C45.5660297,91.4416 32.1037605,93.9782212 26.5310616,95.5260006 C26.0748389,96.924275 25.6161501,98.3231698 25.1346502,99.712139 C23.2887978,105.037244 20.9034928,110.176244 17.2019236,114.483351 C15.9442286,115.944281 14.5453511,117.315881 12.8900025,118.294797 C11.2315712,119.272472 9.29015863,119.84878 7.37895536,119.63786 C4.65456593,119.343813 2.45668217,117.354963 1.76371686,114.7104 C1.04547434,111.974646 1.91106447,108.957252 2.9597602,106.392715 C4.08428754,103.629044 5.7550491,101.092423 7.7858567,98.9118843 C9.35489293,97.2220442 11.1298459,95.7400222 13.034884,94.4428652 C14.3844401,93.4503013 16.1014405,92.3597217 18.1445784,91.3913515 C18.9552985,91.0104551 19.852331,90.6531321 20.7956023,90.327447 C20.9281535,90.2722357 21.0600882,90.2170243 21.1926394,90.1642943 C21.3714293,90.0923335 21.5533019,90.0185115 21.6766053,89.8721083 C21.7844959,89.7511396 21.8338172,89.5929497 21.8831386,89.4347599 C23.0298606,85.7126451 24.2813904,82.019687 25.4922302,78.3137014 C25.2086323,79.175371 24.210491,80.0972147 23.600139,80.7107433 C22.2684618,82.0413993 20.4904263,83.3379359 18.5607275,83.4644878 C17.4294185,83.5389301 16.2586523,83.2070416 15.3893631,82.4725443 C14.3382013,81.5823385 13.8116956,80.1865455 13.6877757,78.809363 C13.5250152,77.0357753 13.8887603,75.2001524 14.2648358,73.4724708 C14.650159,71.6982628 15.1581692,69.9494892 15.725365,68.2255298 C16.1076056,67.0617486 16.5206721,65.9060319 16.9399038,64.7583799 C17.3190619,63.7279745 17.8461841,62.6833009 17.9781188,61.5883788 C18.1230003,60.3755898 17.8301546,59.0920806 18.2715809,58.2452995 C18.7117742,57.3985184 19.8492484,57.5945497 20.9213718,57.8116731 C21.9971943,58.0250743 23.1654943,59.3495268 23.0576038,60.81604 C22.9466307,62.2862754 22.2900399,64.1628415 21.8492302,65.5952354 C21.4152021,67.0282495 20.462683,69.9680998 20.1328463,71.401114 C19.8060922,72.8335078 19.2697223,75.2932053 20.354176,76.0686459 C21.7413397,77.0612098 23.6032215,75.4451916 25.0643673,73.2019972 C26.3985104,71.1554544 28.2418968,65.8899028 28.7905971,64.3086244 C29.0189654,63.6507923 29.3641079,62.5918851 29.7176081,61.492384 L29.9298438,60.8306959 C30.3528517,59.5091125 30.7566704,58.2328924 30.9539559,57.624947 C31.3454443,56.4065748 32.2578898,55.2341087 33.6105285,54.4245487 C34.9607011,53.6156091 36.3879384,53.4698263 37.3367583,53.7979927 C38.2861948,54.1298813 37.5556219,56.554839 37.3367583,57.3985184 C37.2324436,57.7965055 35.3322092,64.6286002 33.3472628,71.758826 L32.9665763,73.1262366 C30.8508434,80.7254766 28.7628538,88.218869 28.7628538,88.218869 C28.7597713,88.2318964 28.7560722,88.2405814 28.7529896,88.2498867 C31.8602362,87.6140254 34.670938,87.167992 36.249222,86.8330017 C37.8605803,86.4888155 43.3193472,85.6409976 48.9883699,84.7984002 L50.0528876,84.6405985 C51.3343875,84.4511272 52.615019,84.2635397 53.8530356,84.0836766 C54.1536354,82.509685 54.5089297,80.6549847 54.8950837,78.6420385 C53.481847,79.5320426 51.6169761,80.3249028 50.1413859,79.8419872 C48.3342963,79.2474076 47.9562198,77.4397929 47.8779716,76.7828406 L47.8647227,76.652738 C47.8587532,76.5810548 47.8578242,76.5409097 47.8578242,76.5409097 C46.6124727,79.604433 44.2131372,81.960847 40.9683394,81.4789514 C37.7241674,81.001375 36.7986021,78.7436848 36.4012161,77.0622948 C36.000701,75.3809049 35.1652516,71.2881858 37.4644584,64.4157744 C39.764291,57.5427459 43.6186226,53.1569405 46.8002141,52.6966407 C49.9818057,52.236958 51.5431886,54.2768388 51.5431886,54.2768388 L51.5431886,54.2768388 L51.9781229,52.909514 C52.4130572,51.5428062 53.8517824,51.6230193 55.3099076,52.0518508 C56.7680327,52.4837675 56.8931937,53.7424961 56.5890525,55.0475015 C56.4618389,55.5943081 56.0502557,57.4507136 55.6156137,59.4201983 L55.4910286,59.9849516 C54.9296035,62.5308855 54.3712004,65.0753729 54.3712004,65.0753729 C54.3712004,65.0753729 52.0719936,73.9932183 54.2961038,73.3330028 C55.0742135,73.1033848 55.6631601,72.7431126 56.1000803,72.3716683 C57.9777622,62.6121396 60.0189272,52.0873227 60.2378799,51.2990133 C60.6525631,49.8053831 61.6107326,49.9293358 63.4510464,50.369368 C65.2945017,50.8094001 64.8458899,51.5469187 64.8458899,51.5469187 L64.8458899,51.5469187 L64.5342492,53.716091 C64.8358369,52.9847701 66.5793913,50.5336053 68.2004256,49.6535411 Z M19.6550455,97.4143535 C19.6550455,97.4143535 14.5971385,99.2871975 10.7476052,104.125947 C7.6779662,107.983298 6.26305926,111.912611 7.37895536,113.277386 C8.77536678,114.989559 11.4473523,112.163853 12.3413022,111.13717 C14.1532462,109.057128 15.546575,106.64954 16.7857745,104.191084 C17.3862623,102.993183 17.9565407,101.781014 18.4744151,100.546513 C18.7179394,99.9640021 18.9522159,99.377769 19.1710795,98.7878138 C19.2358138,98.6079116 19.5039988,97.4695649 19.6550455,97.4143535 Z M84.5497497,48.7494441 C86.3615945,47.2391254 88.354686,46.878361 90.6866031,47.2690872 C91.3499288,47.3797623 91.9945694,47.6243484 92.5420467,48.006514 C96.2448371,50.5771133 93.9870381,55.9781843 91.9852268,58.934618 C90.534007,61.0747458 88.4294269,62.630313 86.0377171,63.6331157 C85.2342521,63.9724788 83.7120284,64.5656 82.2452376,64.5992305 C82.1860677,64.6016764 81.6005971,66.1119952 81.4729147,67.0010654 C81.3271699,68.0289382 81.4174818,69.6273079 82.1455831,70.2999195 C83.8646245,71.8989007 86.884781,69.9299831 88.2238894,68.8140594 C88.8274224,68.3096007 89.4689487,67.8357152 89.9703358,67.2340336 C90.4405808,66.6776004 91.2627311,65.4308231 92.0630819,65.6876384 C92.7195564,65.8979824 93.1219118,67.1086832 93.3299407,67.6186451 C93.3299407,67.6186451 93.9253768,69.0470276 93.4981078,69.9091933 C93.0714616,70.7713591 90.0108205,73.4887099 89.30701,74.0316909 C88.609428,74.573449 86.096887,76.1320735 83.8833097,76.6762774 C82.1237836,77.1073603 80.1032871,76.9184176 78.6178111,75.8300097 C77.665487,75.1366083 76.9959328,74.1179075 76.5910861,73.023385 C76.1831252,71.9319198 76.0274149,70.7676903 75.9557882,69.6059066 C75.6786239,64.8462624 76.9672822,59.7136245 79.2749084,55.520197 C81.3016334,51.8269479 82.1181781,50.7691133 84.5497497,48.7494441 Z M50.5888363,59.8096915 C50.9956094,57.7617894 49.5500004,57.3243195 48.3052746,57.804981 C46.7564078,58.4010261 44.6543295,59.5813927 42.9490115,63.4131107 C42.0484784,65.4431191 41.5315637,67.5465533 41.4001447,69.325433 C41.2687257,71.1061638 41.5409508,74.2838365 43.6561709,74.6873701 C45.5486046,75.0452439 46.912859,72.0625507 48.1425654,68.4005143 C49.2909172,64.9735639 50.2008373,61.7594868 50.5888363,59.8096915 Z M70.6596226,59.4284515 C70.8135581,57.3404682 70.3423272,53.2692415 67.4181823,55.383255 C65.056373,57.0838861 63.9317019,61.1080107 63.0175139,64.5229078 C62.0499198,68.1324106 61.3971079,71.7047276 61.3971079,71.7047276 C62.7756154,73.2287262 65.2919884,72.4205545 66.4820036,71.1959018 C67.8422901,69.8026733 68.5390836,67.8969005 69.1805859,66.0716969 C69.9370686,63.9217372 70.493121,61.7122802 70.6596226,59.4284515 Z M89.6744863,53.0780054 C89.534347,52.3222346 88.8803639,51.9522982 88.111778,52.1424639 C87.5792488,52.2739289 87.1370316,52.6377506 86.7508702,53.0223621 C84.9203402,54.8659293 83.4442068,58.3842994 83.1826135,59.7998411 C83.2012987,59.6830513 83.5718892,59.8096245 84.842485,59.2953824 C85.3027646,59.1058282 85.7356392,58.8948728 86.1560569,58.6288855 C87.0716333,58.0516624 87.9280398,57.3607069 88.582023,56.500987 C89.2727538,55.5935728 89.8955949,54.2397891 89.6744863,53.0780054 Z" id="logo" fill="#742384"></path>
    </g>
</svg>